<svg id="visual" viewBox="0 0 1500 450" width="1500" height="450" xmlns="http://www.w3.org/2000/svg" xmlns:xlink="http://www.w3.org/1999/xlink" version="1.1"><rect width="1500" height="450" fill="#B2C8A2"></rect><g><g transform="translate(864 384)"><path d="M44.4 -33.5C57.3 -19.3 67.2 -0.8 63.8 14.9C60.5 30.5 43.8 43.5 27.3 48.1C10.8 52.7 -5.5 49.1 -21.5 42.3C-37.5 35.5 -53.1 25.6 -57.7 11.5C-62.2 -2.6 -55.6 -20.8 -44.2 -34.7C-32.7 -48.6 -16.3 -58.2 -0.3 -57.9C15.8 -57.7 31.5 -47.7 44.4 -33.5Z" fill="none" stroke="#fafafa" stroke-width="7"></path></g><g transform="translate(1029 334)"><path d="M47.7 -35.4C59.2 -23.7 64 -4 58.9 11.5C53.9 27 38.8 38.2 23 44.8C7.1 51.3 -9.7 53.1 -23.1 47C-36.5 40.9 -46.6 26.9 -51.8 10C-57.1 -6.8 -57.6 -26.6 -48.2 -37.8C-38.7 -49 -19.4 -51.8 -0.6 -51.3C18.1 -50.8 36.2 -47.1 47.7 -35.4Z" fill="none" stroke="#fafafa" stroke-width="7"></path></g><g transform="translate(120 64)"><path d="M35.2 -27.5C44.8 -16.1 51.1 -1.5 49.1 12.9C47.2 27.3 37 41.4 23.4 47.6C9.8 53.8 -7.2 52 -18.9 44.4C-30.5 36.8 -36.9 23.3 -39.2 9.9C-41.5 -3.5 -39.8 -16.9 -32.5 -27.8C-25.3 -38.6 -12.7 -47 0.1 -47.1C12.8 -47.1 25.7 -38.9 35.2 -27.5Z" fill="none" stroke="#fafafa" stroke-width="7"></path></g><g transform="translate(323 345)"><path d="M21.9 -18.3C27.1 -11 29 -2 27.8 7.5C26.5 16.9 22.1 26.7 14.8 29.9C7.5 33.1 -2.5 29.6 -12.1 25C-21.6 20.5 -30.7 14.8 -33 6.9C-35.3 -1 -30.8 -11 -24.2 -18.7C-17.6 -26.3 -8.8 -31.6 -0.2 -31.4C8.4 -31.2 16.7 -25.6 21.9 -18.3Z" fill="none" stroke="#fafafa" stroke-width="7"></path></g><g transform="translate(1368 161)"><path d="M25.5 -21.5C31.8 -12.6 34.5 -2 32.1 6.8C29.6 15.6 22 22.8 13.3 26.6C4.6 30.4 -5.2 30.8 -16 27.7C-26.7 24.6 -38.3 18 -42 7.9C-45.6 -2.2 -41.3 -15.8 -32.9 -25.2C-24.6 -34.6 -12.3 -39.8 -1.3 -38.8C9.7 -37.7 19.3 -30.4 25.5 -21.5Z" fill="none" stroke="#fafafa" stroke-width="7"></path></g><g transform="translate(671 293)"><path d="M41.7 -30.6C52 -20.4 56.7 -3.2 53.4 12.4C50 28.1 38.5 42.1 23.9 48.9C9.2 55.7 -8.6 55.3 -21.5 47.9C-34.4 40.5 -42.4 26 -44 12C-45.6 -1.9 -40.8 -15.3 -32.4 -25.1C-24 -34.9 -12 -41.1 1.9 -42.6C15.7 -44.1 31.4 -40.9 41.7 -30.6Z" stroke="#fafafa" fill="none" stroke-width="7"></path></g><g transform="translate(1169 68)"><path d="M48.2 -37.9C56.8 -27.6 54.3 -7.9 49.5 10.6C44.8 29.2 37.8 46.5 23.7 55.9C9.6 65.3 -11.6 66.7 -28.2 58.7C-44.8 50.6 -56.7 33.2 -58.9 15.7C-61.1 -1.7 -53.4 -19.1 -42 -30.1C-30.5 -41 -15.3 -45.6 2.3 -47.4C19.8 -49.2 39.5 -48.2 48.2 -37.9Z" stroke="#fafafa" fill="none" stroke-width="7"></path></g><g transform="translate(925 54)"><path d="M43.7 -31.6C54.8 -21 60.5 -2.9 57.5 14.3C54.5 31.5 42.7 47.9 27.3 54.3C12 60.8 -7 57.3 -22.1 48.9C-37.3 40.5 -48.7 27.1 -50.6 13.1C-52.6 -0.9 -45.2 -15.5 -35.2 -25.9C-25.2 -36.3 -12.6 -42.5 1.9 -44C16.3 -45.5 32.7 -42.3 43.7 -31.6Z" stroke="#fafafa" fill="none" stroke-width="7"></path></g><g transform="translate(1222 227)"><path d="M16.3 -14.6C19.7 -8.7 20.2 -2 19 4.8C17.8 11.6 15 18.4 9.8 21.4C4.5 24.3 -3.1 23.3 -10.2 20.2C-17.3 17.2 -23.8 12.1 -26 5.2C-28.1 -1.6 -25.8 -10.2 -20.7 -16.5C-15.7 -22.9 -7.8 -27 -0.7 -26.4C6.4 -25.9 12.8 -20.6 16.3 -14.6Z" stroke="#fafafa" fill="none" stroke-width="7"></path></g><g transform="translate(487 238)"><path d="M19.8 -14.3C25.4 -8.8 29.4 -0.6 27.9 6.5C26.3 13.5 19.2 19.4 11.1 23.5C3 27.5 -6.2 29.8 -13.4 26.8C-20.7 23.7 -25.9 15.4 -27 7.1C-28.1 -1.2 -25.1 -9.4 -20 -14.8C-14.8 -20.2 -7.4 -22.8 -0.1 -22.7C7.1 -22.5 14.2 -19.8 19.8 -14.3Z" stroke="#fafafa" fill="none" stroke-width="7"></path></g><g transform="translate(339 70)"><path d="M28.3 -21.4C34.5 -14.7 36 -3.1 32.6 5.8C29.3 14.8 21.2 21 11.9 26C2.6 30.9 -8 34.7 -14.7 31.2C-21.5 27.7 -24.5 17 -25.1 7.6C-25.7 -1.7 -23.9 -9.7 -19.3 -16C-14.8 -22.2 -7.4 -26.8 1.8 -28.3C11 -29.7 22 -28 28.3 -21.4Z" stroke="#fafafa" fill="none" stroke-width="7"></path></g><g transform="translate(86 299)"><path d="M16.7 -13.1C20.9 -8.1 22.9 -1.2 21.5 4.9C20.1 11 15.3 16.4 9.3 19.2C3.4 22.1 -3.8 22.3 -9.5 19.6C-15.3 16.9 -19.8 11.2 -21.1 5C-22.4 -1.3 -20.6 -8.1 -16.5 -13.1C-12.5 -18 -6.2 -21 0 -21.1C6.3 -21.1 12.6 -18.1 16.7 -13.1Z" stroke="#fafafa" fill="none" stroke-width="7"></path></g><g transform="translate(743 126)"><path d="M17.8 -14.3C21.4 -9.7 21.4 -2.4 19.3 3.3C17.1 9 12.7 13.1 7.4 15.7C2.2 18.4 -3.9 19.6 -9.4 17.7C-15 15.8 -19.9 10.7 -22 4.3C-24.1 -2.2 -23.3 -10.1 -19.1 -14.8C-15 -19.6 -7.5 -21.3 -0.2 -21.1C7.1 -20.9 14.2 -18.9 17.8 -14.3Z" stroke="#fafafa" fill="none" stroke-width="7"></path></g><g transform="translate(1373 381)"><path d="M19.9 -16.6C24.5 -10.1 26.1 -1.9 24.4 5.7C22.8 13.3 18 20.4 11.4 23.4C4.9 26.5 -3.5 25.5 -10.3 22C-17.2 18.5 -22.6 12.4 -24.9 4.9C-27.2 -2.6 -26.5 -11.6 -21.9 -18.1C-17.2 -24.6 -8.6 -28.6 -0.5 -28.2C7.7 -27.9 15.3 -23.1 19.9 -16.6Z" stroke="#fafafa" fill="none" stroke-width="7"></path></g><g transform="translate(1197 405)"><path d="M47 -38.6C56.8 -25.2 57.8 -5.9 53.1 11.1C48.4 28.1 38.1 42.8 22.9 51.7C7.7 60.7 -12.3 63.8 -26.4 56.4C-40.6 49 -49.1 31.1 -53.7 11.9C-58.3 -7.2 -59.2 -27.5 -49.6 -40.8C-40 -54.1 -20 -60.4 -0.7 -59.8C18.6 -59.2 37.3 -51.9 47 -38.6Z" stroke="#fafafa" fill="none" stroke-width="7"></path></g><g transform="translate(621 448)"><path d="M21.8 -17.3C27.1 -10.7 29.6 -1.7 27.6 6.1C25.7 13.9 19.4 20.5 11.5 24.5C3.7 28.5 -5.7 29.9 -11.9 26.3C-18.2 22.7 -21.3 14.1 -22.9 5.7C-24.4 -2.7 -24.3 -11 -20.3 -17.3C-16.2 -23.6 -8.1 -27.8 0.1 -27.8C8.2 -27.9 16.5 -23.8 21.8 -17.3Z" stroke="#fafafa" fill="none" stroke-width="7"></path></g><g transform="translate(576 41)"><path d="M24.9 -19C31.1 -12.1 34.1 -1.8 32.8 8.8C31.4 19.4 25.6 30.3 16.4 35.2C7.2 40 -5.5 38.9 -15.3 33.5C-25.1 28.1 -32 18.5 -33.4 8.7C-34.8 -1.2 -30.7 -11.2 -24.2 -18.1C-17.7 -25.1 -8.9 -29 0.2 -29.2C9.3 -29.4 18.7 -25.9 24.9 -19Z" stroke="#fafafa" fill="none" stroke-width="7"></path></g><g transform="translate(1466 24)"><path d="M26.9 -22.5C33.6 -13.1 36.8 -2 34.3 7.4C31.8 16.8 23.6 24.4 13.4 30.4C3.1 36.3 -9.2 40.6 -18.7 36.8C-28.3 33 -34.9 21.3 -36.3 9.8C-37.7 -1.6 -33.8 -12.8 -26.9 -22.2C-20 -31.6 -10 -39.4 0.1 -39.4C10.1 -39.5 20.2 -31.8 26.9 -22.5Z" stroke="#fafafa" fill="none" stroke-width="7"></path></g><g transform="translate(242 206)"><path d="M27.5 -22.7C33.2 -14.8 33.7 -3.5 31.9 8.4C30 20.3 25.9 32.8 17.2 37.8C8.4 42.9 -4.9 40.4 -15.1 34.4C-25.3 28.3 -32.4 18.7 -36.1 6.9C-39.9 -4.8 -40.3 -18.7 -33.7 -26.8C-27.2 -34.9 -13.6 -37.2 -1.4 -36.1C10.9 -35.1 21.8 -30.6 27.5 -22.7Z" stroke="#fafafa" fill="none" stroke-width="7"></path></g><g transform="translate(904 221)"><path d="M18.9 -16.1C22.9 -10 23.6 -2.2 21.6 4.4C19.7 11 15.2 16.5 9.3 19.3C3.5 22.1 -3.6 22.2 -10.2 19.6C-16.7 17.1 -22.7 11.8 -24.1 5.5C-25.6 -0.8 -22.5 -8.2 -17.8 -14.4C-13 -20.7 -6.5 -25.9 0.5 -26.2C7.4 -26.6 14.8 -22.1 18.9 -16.1Z" stroke="#fafafa" fill="none" stroke-width="7"></path></g><g transform="translate(461 443)"><path d="M47.3 -41C55.5 -27.4 52.3 -8.1 48 11.1C43.8 30.3 38.4 49.3 24.7 58.8C11 68.4 -10.9 68.3 -26.8 59.3C-42.6 50.2 -52.3 32.2 -56.3 13.3C-60.2 -5.6 -58.4 -25.3 -48 -39.4C-37.7 -53.4 -18.8 -61.7 0.4 -62C19.5 -62.3 39.1 -54.5 47.3 -41Z" stroke="#fafafa" fill="none" stroke-width="7"></path></g></g></svg>