<svg id="visual" viewBox="0 0 1500 450" width="1500" height="450" xmlns="http://www.w3.org/2000/svg" xmlns:xlink="http://www.w3.org/1999/xlink" version="1.1"><g stroke-width="1" stroke-linejoin="bevel"><path d="M799.5 183L847.5 92L774.4 137Z" fill="#c1d3b4" stroke="#c1d3b4"></path><path d="M799.5 183L883.4 115L847.5 92Z" fill="#ffffff" stroke="#ffffff"></path><path d="M883.4 115L861.4 60L847.5 92Z" fill="#e0e9d9" stroke="#e0e9d9"></path><path d="M719.5 0L699.5 94L774.4 137Z" fill="#c9d8bd" stroke="#c9d8bd"></path><path d="M793.5 298L810.4 235L717.5 314Z" fill="#d0dec7" stroke="#d0dec7"></path><path d="M923.4 247L944.3 152L883.4 115Z" fill="#d0dec7" stroke="#d0dec7"></path><path d="M923.4 247L883.4 115L799.5 183Z" fill="#bacdab" stroke="#bacdab"></path><path d="M883.4 115L1017.4 95L861.4 60Z" fill="#d8e3d0" stroke="#d8e3d0"></path><path d="M821.4 0L774.4 137L847.5 92Z" fill="#c1d3b4" stroke="#c1d3b4"></path><path d="M774.4 137L652.6 214L799.5 183Z" fill="#e0e9d9" stroke="#e0e9d9"></path><path d="M1021.3 0L821.4 0L861.4 60Z" fill="#c9d8bd" stroke="#c9d8bd"></path><path d="M861.4 60L821.4 0L847.5 92Z" fill="#bacdab" stroke="#bacdab"></path><path d="M810.4 235L923.4 247L799.5 183Z" fill="#bacdab" stroke="#bacdab"></path><path d="M652.6 214L810.4 235L799.5 183Z" fill="#d8e3d0" stroke="#d8e3d0"></path><path d="M810.4 235L852.4 318L923.4 247Z" fill="#c1d3b4" stroke="#c1d3b4"></path><path d="M821.4 0L719.5 0L774.4 137Z" fill="#d0dec7" stroke="#d0dec7"></path><path d="M793.5 298L826.5 316L810.4 235Z" fill="#d0dec7" stroke="#d0dec7"></path><path d="M1014.3 266L1006.4 142L944.3 152Z" fill="#ffffff" stroke="#ffffff"></path><path d="M944.3 152L1017.4 95L883.4 115Z" fill="#b2c8a2" stroke="#b2c8a2"></path><path d="M826.5 316L852.4 318L810.4 235Z" fill="#d8e3d0" stroke="#d8e3d0"></path><path d="M590.6 125L652.6 214L699.5 94Z" fill="#ffffff" stroke="#ffffff"></path><path d="M699.5 94L652.6 214L774.4 137Z" fill="#c1d3b4" stroke="#c1d3b4"></path><path d="M793.5 298L832.5 331L826.5 316Z" fill="#b2c8a2" stroke="#b2c8a2"></path><path d="M826.5 316L832.5 331L852.4 318Z" fill="#c9d8bd" stroke="#c9d8bd"></path><path d="M717.5 314L832.5 331L793.5 298Z" fill="#d0dec7" stroke="#d0dec7"></path><path d="M719.5 0L690.5 0L699.5 94Z" fill="#d0dec7" stroke="#d0dec7"></path><path d="M1006.4 142L1017.4 95L944.3 152Z" fill="#c1d3b4" stroke="#c1d3b4"></path><path d="M690.5 0L646.5 57L699.5 94Z" fill="#eff4ec" stroke="#eff4ec"></path><path d="M558.6 220L645.6 235L652.6 214Z" fill="#e0e9d9" stroke="#e0e9d9"></path><path d="M652.6 214L717.5 314L810.4 235Z" fill="#c9d8bd" stroke="#c9d8bd"></path><path d="M852.4 318L925.4 319L923.4 247Z" fill="#c1d3b4" stroke="#c1d3b4"></path><path d="M923.4 247L1014.3 266L944.3 152Z" fill="#bacdab" stroke="#bacdab"></path><path d="M935.4 334L925.4 319L852.4 318Z" fill="#b2c8a2" stroke="#b2c8a2"></path><path d="M645.6 235L717.5 314L652.6 214Z" fill="#d8e3d0" stroke="#d8e3d0"></path><path d="M884.4 450L935.4 334L852.4 318Z" fill="#b2c8a2" stroke="#b2c8a2"></path><path d="M925.4 319L1014.3 266L923.4 247Z" fill="#c1d3b4" stroke="#c1d3b4"></path><path d="M935.4 334L1014.3 266L925.4 319Z" fill="#bacdab" stroke="#bacdab"></path><path d="M1093.3 145L1084.3 75L1017.4 95Z" fill="#eff4ec" stroke="#eff4ec"></path><path d="M568.7 5L590.6 125L646.5 57Z" fill="#b2c8a2" stroke="#b2c8a2"></path><path d="M646.5 57L590.6 125L699.5 94Z" fill="#e8eee3" stroke="#e8eee3"></path><path d="M1041.4 0L1030.3 20L1045.3 0Z" fill="#b2c8a2" stroke="#b2c8a2"></path><path d="M1017.4 95L1021.3 0L861.4 60Z" fill="#eff4ec" stroke="#eff4ec"></path><path d="M1030.3 20L1021.3 0L1017.4 95Z" fill="#e8eee3" stroke="#e8eee3"></path><path d="M637.6 296L649.5 302L645.6 235Z" fill="#e8eee3" stroke="#e8eee3"></path><path d="M645.6 235L649.5 302L717.5 314Z" fill="#eff4ec" stroke="#eff4ec"></path><path d="M690.5 0L628.6 0L646.5 57Z" fill="#d8e3d0" stroke="#d8e3d0"></path><path d="M558.6 220L637.6 296L645.6 235Z" fill="#c9d8bd" stroke="#c9d8bd"></path><path d="M1045.3 0L1030.3 20L1084.3 61Z" fill="#d0dec7" stroke="#d0dec7"></path><path d="M1030.3 20L1041.4 0L1021.3 0Z" fill="#bacdab" stroke="#bacdab"></path><path d="M1084.3 61L1030.3 20L1017.4 95Z" fill="#e8eee3" stroke="#e8eee3"></path><path d="M628.6 0L604.6 0L646.5 57Z" fill="#bacdab" stroke="#bacdab"></path><path d="M1093.3 145L1017.4 95L1006.4 142Z" fill="#b2c8a2" stroke="#b2c8a2"></path><path d="M1014.3 266L1093.3 145L1006.4 142Z" fill="#eff4ec" stroke="#eff4ec"></path><path d="M1156.2 41L1084.3 61L1084.3 75Z" fill="#ffffff" stroke="#ffffff"></path><path d="M1084.3 75L1084.3 61L1017.4 95Z" fill="#e8eee3" stroke="#e8eee3"></path><path d="M543.7 168L558.6 220L590.6 125Z" fill="#bacdab" stroke="#bacdab"></path><path d="M590.6 125L558.6 220L652.6 214Z" fill="#c9d8bd" stroke="#c9d8bd"></path><path d="M540.6 140L543.7 168L590.6 125Z" fill="#c9d8bd" stroke="#c9d8bd"></path><path d="M568.7 5L540.6 140L590.6 125Z" fill="#ffffff" stroke="#ffffff"></path><path d="M604.6 0L568.7 5L646.5 57Z" fill="#d8e3d0" stroke="#d8e3d0"></path><path d="M628.6 0L566.6 -5L604.6 0Z" fill="#d0dec7" stroke="#d0dec7"></path><path d="M604.6 0L566.6 -5L568.7 5Z" fill="#bacdab" stroke="#bacdab"></path><path d="M497.7 0L473.7 135L540.6 140Z" fill="#c1d3b4" stroke="#c1d3b4"></path><path d="M690.5 0L566.6 -5L628.6 0Z" fill="#d0dec7" stroke="#d0dec7"></path><path d="M719.5 0L566.6 -5L690.5 0Z" fill="#d0dec7" stroke="#d0dec7"></path><path d="M821.4 0L566.6 -5L719.5 0Z" fill="#ffffff" stroke="#ffffff"></path><path d="M1330.1 -17L566.6 -5L821.4 0Z" fill="#ffffff" stroke="#ffffff"></path><path d="M1330.1 -17L821.4 0L1021.3 0Z" fill="#f7f9f5" stroke="#f7f9f5"></path><path d="M1330.1 -17L1021.3 0L1041.4 0Z" fill="#c1d3b4" stroke="#c1d3b4"></path><path d="M633.5 450L659.5 386L594.6 433Z" fill="#c9d8bd" stroke="#c9d8bd"></path><path d="M637.6 296L659.5 386L649.5 302Z" fill="#eff4ec" stroke="#eff4ec"></path><path d="M649.5 302L659.5 386L717.5 314Z" fill="#b2c8a2" stroke="#b2c8a2"></path><path d="M717.5 314L799.4 450L832.5 331Z" fill="#c1d3b4" stroke="#c1d3b4"></path><path d="M1036.3 378L1039.3 364L935.4 334Z" fill="#b2c8a2" stroke="#b2c8a2"></path><path d="M543.7 168L518.6 180L558.6 220Z" fill="#d0dec7" stroke="#d0dec7"></path><path d="M594.6 433L659.5 386L637.6 296Z" fill="#c1d3b4" stroke="#c1d3b4"></path><path d="M540.6 140L518.6 180L543.7 168Z" fill="#c9d8bd" stroke="#c9d8bd"></path><path d="M473.7 135L518.6 180L540.6 140Z" fill="#c1d3b4" stroke="#c1d3b4"></path><path d="M935.4 334L1039.3 364L1014.3 266Z" fill="#e8eee3" stroke="#e8eee3"></path><path d="M1014.3 266L1158.2 203L1093.3 145Z" fill="#e0e9d9" stroke="#e0e9d9"></path><path d="M878.5 450L852.4 318L832.5 331Z" fill="#b2c8a2" stroke="#b2c8a2"></path><path d="M699.6 450L799.4 450L717.5 314Z" fill="#eff4ec" stroke="#eff4ec"></path><path d="M799.4 450L878.5 450L832.5 331Z" fill="#bacdab" stroke="#bacdab"></path><path d="M878.5 450L884.4 450L852.4 318Z" fill="#d0dec7" stroke="#d0dec7"></path><path d="M1000.3 450L1036.3 378L935.4 334Z" fill="#eff4ec" stroke="#eff4ec"></path><path d="M1126.3 356L1158.2 203L1014.3 266Z" fill="#f7f9f5" stroke="#f7f9f5"></path><path d="M659.5 386L699.6 450L717.5 314Z" fill="#d8e3d0" stroke="#d8e3d0"></path><path d="M633.5 450L699.6 450L659.5 386Z" fill="#eff4ec" stroke="#eff4ec"></path><path d="M1126.3 356L1014.3 266L1039.3 364Z" fill="#d8e3d0" stroke="#d8e3d0"></path><path d="M1093.3 145L1156.2 41L1084.3 75Z" fill="#c1d3b4" stroke="#c1d3b4"></path><path d="M1191.2 153L1156.2 41L1093.3 145Z" fill="#c9d8bd" stroke="#c9d8bd"></path><path d="M1084.3 61L1156.2 41L1045.3 0Z" fill="#c1d3b4" stroke="#c1d3b4"></path><path d="M497.7 0L540.6 140L568.7 5Z" fill="#d8e3d0" stroke="#d8e3d0"></path><path d="M594.6 433L637.6 296L479.7 378Z" fill="#e0e9d9" stroke="#e0e9d9"></path><path d="M566.6 -5L497.7 0L568.7 5Z" fill="#d0dec7" stroke="#d0dec7"></path><path d="M884.4 450L1000.3 450L935.4 334Z" fill="#e8eee3" stroke="#e8eee3"></path><path d="M1036.3 378L1126.3 356L1039.3 364Z" fill="#e0e9d9" stroke="#e0e9d9"></path><path d="M884.4 450L994.3 458L1000.3 450Z" fill="#b2c8a2" stroke="#b2c8a2"></path><path d="M878.5 450L994.3 458L884.4 450Z" fill="#c1d3b4" stroke="#c1d3b4"></path><path d="M799.4 450L994.3 458L878.5 450Z" fill="#d8e3d0" stroke="#d8e3d0"></path><path d="M699.6 450L994.3 458L799.4 450Z" fill="#eff4ec" stroke="#eff4ec"></path><path d="M566.6 -5L489.7 0L497.7 0Z" fill="#d0dec7" stroke="#d0dec7"></path><path d="M497.7 0L489.7 0L473.7 135Z" fill="#d0dec7" stroke="#d0dec7"></path><path d="M1200.2 214L1191.2 153L1158.2 203Z" fill="#c1d3b4" stroke="#c1d3b4"></path><path d="M1158.2 203L1191.2 153L1093.3 145Z" fill="#bacdab" stroke="#bacdab"></path><path d="M637.6 296L558.6 220L479.7 378Z" fill="#b2c8a2" stroke="#b2c8a2"></path><path d="M699.6 450L633.5 450L994.3 458Z" fill="#c9d8bd" stroke="#c9d8bd"></path><path d="M994.3 458L1026.3 450L1000.3 450Z" fill="#ffffff" stroke="#ffffff"></path><path d="M1000.3 450L1026.3 450L1036.3 378Z" fill="#e0e9d9" stroke="#e0e9d9"></path><path d="M1171.2 0L1169.2 0L1156.2 41Z" fill="#b2c8a2" stroke="#b2c8a2"></path><path d="M1156.2 41L1169.2 0L1045.3 0Z" fill="#f7f9f5" stroke="#f7f9f5"></path><path d="M1045.3 0L1330.1 -17L1041.4 0Z" fill="#c9d8bd" stroke="#c9d8bd"></path><path d="M1148.2 427L1126.3 356L1036.3 378Z" fill="#d8e3d0" stroke="#d8e3d0"></path><path d="M1330.1 -17L1171.2 0L1340.1 0Z" fill="#b2c8a2" stroke="#b2c8a2"></path><path d="M1169.2 0L1330.1 -17L1045.3 0Z" fill="#bacdab" stroke="#bacdab"></path><path d="M479.7 378L558.6 220L409.8 262Z" fill="#d8e3d0" stroke="#d8e3d0"></path><path d="M1191.2 271L1193.2 240L1158.2 203Z" fill="#c9d8bd" stroke="#c9d8bd"></path><path d="M1193.2 240L1200.2 214L1158.2 203Z" fill="#b2c8a2" stroke="#b2c8a2"></path><path d="M1191.2 153L1270.2 162L1156.2 41Z" fill="#f7f9f5" stroke="#f7f9f5"></path><path d="M1126.3 356L1191.2 271L1158.2 203Z" fill="#b2c8a2" stroke="#b2c8a2"></path><path d="M1292.1 288L1270.2 162L1200.2 214Z" fill="#ffffff" stroke="#ffffff"></path><path d="M409.8 262L558.6 220L518.6 180Z" fill="#d8e3d0" stroke="#d8e3d0"></path><path d="M479.7 378L536.6 450L594.6 433Z" fill="#e8eee3" stroke="#e8eee3"></path><path d="M594.6 433L536.6 450L633.5 450Z" fill="#c9d8bd" stroke="#c9d8bd"></path><path d="M633.5 450L536.6 450L994.3 458Z" fill="#e8eee3" stroke="#e8eee3"></path><path d="M1135.2 450L1148.2 427L1036.3 378Z" fill="#c1d3b4" stroke="#c1d3b4"></path><path d="M1274.1 406L1280.2 298L1191.2 271Z" fill="#c9d8bd" stroke="#c9d8bd"></path><path d="M1135.2 450L1036.3 378L1026.3 450Z" fill="#d0dec7" stroke="#d0dec7"></path><path d="M385.7 178L518.6 180L473.7 135Z" fill="#c1d3b4" stroke="#c1d3b4"></path><path d="M383.8 222L409.8 262L518.6 180Z" fill="#bacdab" stroke="#bacdab"></path><path d="M994.3 458L1135.2 450L1026.3 450Z" fill="#d8e3d0" stroke="#d8e3d0"></path><path d="M390.8 0L385.7 178L473.7 135Z" fill="#c1d3b4" stroke="#c1d3b4"></path><path d="M1280.2 298L1193.2 240L1191.2 271Z" fill="#eff4ec" stroke="#eff4ec"></path><path d="M1292.1 288L1200.2 214L1193.2 240Z" fill="#c9d8bd" stroke="#c9d8bd"></path><path d="M1200.2 214L1270.2 162L1191.2 153Z" fill="#eff4ec" stroke="#eff4ec"></path><path d="M385.7 178L383.8 222L518.6 180Z" fill="#c9d8bd" stroke="#c9d8bd"></path><path d="M409.8 262L436.7 405L479.7 378Z" fill="#ffffff" stroke="#ffffff"></path><path d="M388.7 -8L390.8 0L489.7 0Z" fill="#eff4ec" stroke="#eff4ec"></path><path d="M489.7 0L390.8 0L473.7 135Z" fill="#eff4ec" stroke="#eff4ec"></path><path d="M316.7 216L324.7 240L383.8 222Z" fill="#e0e9d9" stroke="#e0e9d9"></path><path d="M566.6 -5L388.7 -8L489.7 0Z" fill="#d8e3d0" stroke="#d8e3d0"></path><path d="M390.8 0L363.8 1L385.7 178Z" fill="#ffffff" stroke="#ffffff"></path><path d="M94.9 -25L388.7 -8L566.6 -5Z" fill="#d8e3d0" stroke="#d8e3d0"></path><path d="M354.7 398L436.7 405L409.8 262Z" fill="#c1d3b4" stroke="#c1d3b4"></path><path d="M479.7 378L470.6 449L536.6 450Z" fill="#d8e3d0" stroke="#d8e3d0"></path><path d="M436.7 405L470.6 449L479.7 378Z" fill="#d8e3d0" stroke="#d8e3d0"></path><path d="M536.6 450L409.7 450L994.3 458Z" fill="#bacdab" stroke="#bacdab"></path><path d="M1274.1 406L1191.2 271L1126.3 356Z" fill="#c1d3b4" stroke="#c1d3b4"></path><path d="M1274.1 406L1126.3 356L1148.2 427Z" fill="#e8eee3" stroke="#e8eee3"></path><path d="M388.7 -8L363.8 1L390.8 0Z" fill="#e0e9d9" stroke="#e0e9d9"></path><path d="M1347.1 232L1309.2 149L1270.2 162Z" fill="#e0e9d9" stroke="#e0e9d9"></path><path d="M1270.2 162L1340.1 0L1156.2 41Z" fill="#c9d8bd" stroke="#c9d8bd"></path><path d="M1274.1 406L1292.1 288L1280.2 298Z" fill="#f7f9f5" stroke="#f7f9f5"></path><path d="M1280.2 298L1292.1 288L1193.2 240Z" fill="#f7f9f5" stroke="#f7f9f5"></path><path d="M316.7 216L383.8 222L385.7 178Z" fill="#b2c8a2" stroke="#b2c8a2"></path><path d="M383.8 222L324.7 240L409.8 262Z" fill="#e0e9d9" stroke="#e0e9d9"></path><path d="M310.8 187L316.7 216L385.7 178Z" fill="#e0e9d9" stroke="#e0e9d9"></path><path d="M363.8 1L310.8 187L385.7 178Z" fill="#f7f9f5" stroke="#f7f9f5"></path><path d="M397.7 450L409.7 450L436.7 405Z" fill="#b2c8a2" stroke="#b2c8a2"></path><path d="M436.7 405L409.7 450L470.6 449Z" fill="#e8eee3" stroke="#e8eee3"></path><path d="M470.6 449L409.7 450L536.6 450Z" fill="#bacdab" stroke="#bacdab"></path><path d="M1266.2 450L1274.1 406L1148.2 427Z" fill="#c9d8bd" stroke="#c9d8bd"></path><path d="M1340.1 0L1171.2 0L1156.2 41Z" fill="#ffffff" stroke="#ffffff"></path><path d="M1171.2 0L1330.1 -17L1169.2 0Z" fill="#c9d8bd" stroke="#c9d8bd"></path><path d="M1340.1 0L1270.2 162L1309.2 149Z" fill="#ffffff" stroke="#ffffff"></path><path d="M354.7 398L397.7 450L436.7 405Z" fill="#eff4ec" stroke="#eff4ec"></path><path d="M409.7 450L397.7 450L994.3 458Z" fill="#e0e9d9" stroke="#e0e9d9"></path><path d="M1390.1 242L1347.1 232L1292.1 288Z" fill="#d8e3d0" stroke="#d8e3d0"></path><path d="M1292.1 288L1347.1 232L1270.2 162Z" fill="#c1d3b4" stroke="#c1d3b4"></path><path d="M1385.1 81L1340.1 0L1309.2 149Z" fill="#b2c8a2" stroke="#b2c8a2"></path><path d="M287.8 316L354.7 398L409.8 262Z" fill="#bacdab" stroke="#bacdab"></path><path d="M287.8 316L409.8 262L324.7 240Z" fill="#c1d3b4" stroke="#c1d3b4"></path><path d="M1135.2 450L1266.2 450L1148.2 427Z" fill="#d0dec7" stroke="#d0dec7"></path><path d="M1411.1 450L1390.1 242L1292.1 288Z" fill="#e0e9d9" stroke="#e0e9d9"></path><path d="M994.3 458L1266.2 450L1135.2 450Z" fill="#e8eee3" stroke="#e8eee3"></path><path d="M1347.1 232L1365.1 162L1309.2 149Z" fill="#b2c8a2" stroke="#b2c8a2"></path><path d="M1394.1 112L1385.1 81L1309.2 149Z" fill="#eff4ec" stroke="#eff4ec"></path><path d="M213.8 349L287.8 316L163.8 290Z" fill="#c9d8bd" stroke="#c9d8bd"></path><path d="M316.7 216L287.8 316L324.7 240Z" fill="#d0dec7" stroke="#d0dec7"></path><path d="M1365.1 162L1394.1 112L1309.2 149Z" fill="#bacdab" stroke="#bacdab"></path><path d="M1434.1 245L1394.1 112L1365.1 162Z" fill="#f7f9f5" stroke="#f7f9f5"></path><path d="M1390.1 242L1365.1 162L1347.1 232Z" fill="#d8e3d0" stroke="#d8e3d0"></path><path d="M1434.1 245L1390.1 242L1500 323Z" fill="#d8e3d0" stroke="#d8e3d0"></path><path d="M213.8 349L270.8 346L287.8 316Z" fill="#ffffff" stroke="#ffffff"></path><path d="M287.8 316L289.8 396L354.7 398Z" fill="#f7f9f5" stroke="#f7f9f5"></path><path d="M354.7 398L271.8 450L397.7 450Z" fill="#c1d3b4" stroke="#c1d3b4"></path><path d="M270.8 346L289.8 396L287.8 316Z" fill="#ffffff" stroke="#ffffff"></path><path d="M1500 76L1385.1 81L1394.1 112Z" fill="#e8eee3" stroke="#e8eee3"></path><path d="M1500 76L1421.1 0L1385.1 81Z" fill="#e0e9d9" stroke="#e0e9d9"></path><path d="M1385.1 81L1421.1 0L1340.1 0Z" fill="#e8eee3" stroke="#e8eee3"></path><path d="M1340.1 0L1421.1 0L1330.1 -17Z" fill="#f7f9f5" stroke="#f7f9f5"></path><path d="M1411.1 450L1292.1 288L1274.1 406Z" fill="#e8eee3" stroke="#e8eee3"></path><path d="M1390.1 242L1434.1 245L1365.1 162Z" fill="#d8e3d0" stroke="#d8e3d0"></path><path d="M222.8 450L271.8 450L289.8 396Z" fill="#c1d3b4" stroke="#c1d3b4"></path><path d="M289.8 396L271.8 450L354.7 398Z" fill="#d0dec7" stroke="#d0dec7"></path><path d="M397.7 450L271.8 450L994.3 458Z" fill="#b2c8a2" stroke="#b2c8a2"></path><path d="M363.8 1L184.9 88L310.8 187Z" fill="#bacdab" stroke="#bacdab"></path><path d="M163.8 290L287.8 316L316.7 216Z" fill="#c1d3b4" stroke="#c1d3b4"></path><path d="M270.8 346L213.8 349L289.8 396Z" fill="#e8eee3" stroke="#e8eee3"></path><path d="M163.8 290L316.7 216L310.8 187Z" fill="#d0dec7" stroke="#d0dec7"></path><path d="M363.8 1L175.8 67L184.9 88Z" fill="#b2c8a2" stroke="#b2c8a2"></path><path d="M136.9 134L163.8 290L310.8 187Z" fill="#e8eee3" stroke="#e8eee3"></path><path d="M159.9 0L175.8 67L363.8 1Z" fill="#ffffff" stroke="#ffffff"></path><path d="M994.3 458L1411.1 450L1266.2 450Z" fill="#b2c8a2" stroke="#b2c8a2"></path><path d="M1266.2 450L1411.1 450L1274.1 406Z" fill="#c9d8bd" stroke="#c9d8bd"></path><path d="M1500 247L1500 76L1394.1 112Z" fill="#f7f9f5" stroke="#f7f9f5"></path><path d="M1500 247L1394.1 112L1434.1 245Z" fill="#ffffff" stroke="#ffffff"></path><path d="M213.8 349L222.8 450L289.8 396Z" fill="#d8e3d0" stroke="#d8e3d0"></path><path d="M271.8 450L222.8 450L994.3 458Z" fill="#c9d8bd" stroke="#c9d8bd"></path><path d="M167.9 407L222.8 450L213.8 349Z" fill="#c1d3b4" stroke="#c1d3b4"></path><path d="M136.9 134L310.8 187L184.9 88Z" fill="#b2c8a2" stroke="#b2c8a2"></path><path d="M388.7 -8L159.9 0L363.8 1Z" fill="#eff4ec" stroke="#eff4ec"></path><path d="M175.8 67L136.9 134L184.9 88Z" fill="#c1d3b4" stroke="#c1d3b4"></path><path d="M1500 323L1500 247L1434.1 245Z" fill="#d0dec7" stroke="#d0dec7"></path><path d="M1500 76L1500 4L1421.1 0Z" fill="#c1d3b4" stroke="#c1d3b4"></path><path d="M1421.1 0L1500 0L1330.1 -17Z" fill="#eff4ec" stroke="#eff4ec"></path><path d="M1500 4L1500 0L1421.1 0Z" fill="#eff4ec" stroke="#eff4ec"></path><path d="M52.9 51L136.9 134L175.8 67Z" fill="#f7f9f5" stroke="#f7f9f5"></path><path d="M994.3 458L1441.1 450L1411.1 450Z" fill="#e0e9d9" stroke="#e0e9d9"></path><path d="M1411.1 450L1500 323L1390.1 242Z" fill="#e8eee3" stroke="#e8eee3"></path><path d="M94.9 -25L148.9 0L159.9 0Z" fill="#c9d8bd" stroke="#c9d8bd"></path><path d="M159.9 0L148.9 0L175.8 67Z" fill="#c1d3b4" stroke="#c1d3b4"></path><path d="M1500 380L1500 323L1411.1 450Z" fill="#e8eee3" stroke="#e8eee3"></path><path d="M94.9 -25L140.8 0L148.9 0Z" fill="#f7f9f5" stroke="#f7f9f5"></path><path d="M148.9 0L140.8 0L175.8 67Z" fill="#f7f9f5" stroke="#f7f9f5"></path><path d="M105.9 347L213.8 349L163.8 290Z" fill="#e0e9d9" stroke="#e0e9d9"></path><path d="M105.9 347L167.9 407L213.8 349Z" fill="#c9d8bd" stroke="#c9d8bd"></path><path d="M1441.1 450L1500 380L1411.1 450Z" fill="#d0dec7" stroke="#d0dec7"></path><path d="M1441.1 450L1480.1 431L1500 380Z" fill="#eff4ec" stroke="#eff4ec"></path><path d="M108.9 225L123.9 295L163.8 290Z" fill="#d8e3d0" stroke="#d8e3d0"></path><path d="M108.9 225L163.8 290L136.9 134Z" fill="#d8e3d0" stroke="#d8e3d0"></path><path d="M11.9 196L108.9 225L136.9 134Z" fill="#bacdab" stroke="#bacdab"></path><path d="M1441.1 450L1500 450L1480.1 431Z" fill="#c9d8bd" stroke="#c9d8bd"></path><path d="M1480.1 431L1500 450L1500 380Z" fill="#d0dec7" stroke="#d0dec7"></path><path d="M994.3 458L1500 450L1441.1 450Z" fill="#c9d8bd" stroke="#c9d8bd"></path><path d="M105.9 347L163.8 290L123.9 295Z" fill="#c9d8bd" stroke="#c9d8bd"></path><path d="M138.9 450L146.9 450L167.9 407Z" fill="#eff4ec" stroke="#eff4ec"></path><path d="M167.9 407L146.9 450L222.8 450Z" fill="#eff4ec" stroke="#eff4ec"></path><path d="M222.8 450L146.9 450L994.3 458Z" fill="#d0dec7" stroke="#d0dec7"></path><path d="M388.7 -8L94.9 -25L159.9 0Z" fill="#f7f9f5" stroke="#f7f9f5"></path><path d="M140.8 0L52.9 51L175.8 67Z" fill="#e0e9d9" stroke="#e0e9d9"></path><path d="M1330.1 -17L94.9 -25L566.6 -5Z" fill="#c9d8bd" stroke="#c9d8bd"></path><path d="M97.9 351L123.9 295L0 324Z" fill="#c9d8bd" stroke="#c9d8bd"></path><path d="M97.9 351L105.9 347L123.9 295Z" fill="#f7f9f5" stroke="#f7f9f5"></path><path d="M97.9 351L138.9 450L167.9 407Z" fill="#c9d8bd" stroke="#c9d8bd"></path><path d="M146.9 450L138.9 450L994.3 458Z" fill="#e0e9d9" stroke="#e0e9d9"></path><path d="M0 244L123.9 295L108.9 225Z" fill="#f7f9f5" stroke="#f7f9f5"></path><path d="M105.9 347L97.9 351L167.9 407Z" fill="#eff4ec" stroke="#eff4ec"></path><path d="M94.9 -25L52.9 51L140.8 0Z" fill="#ffffff" stroke="#ffffff"></path><path d="M0 129L11.9 196L136.9 134Z" fill="#e8eee3" stroke="#e8eee3"></path><path d="M97.9 351L0 450L138.9 450Z" fill="#e0e9d9" stroke="#e0e9d9"></path><path d="M0 67L0 129L52.9 51Z" fill="#c1d3b4" stroke="#c1d3b4"></path><path d="M52.9 51L0 129L136.9 134Z" fill="#e8eee3" stroke="#e8eee3"></path><path d="M0 0L0 67L52.9 51Z" fill="#bacdab" stroke="#bacdab"></path><path d="M0 129L0 244L11.9 196Z" fill="#b2c8a2" stroke="#b2c8a2"></path><path d="M11.9 196L0 244L108.9 225Z" fill="#c9d8bd" stroke="#c9d8bd"></path><path d="M94.9 -25L0 0L52.9 51Z" fill="#d8e3d0" stroke="#d8e3d0"></path><path d="M0 244L0 324L123.9 295Z" fill="#d8e3d0" stroke="#d8e3d0"></path><path d="M0 324L0 381L97.9 351Z" fill="#d0dec7" stroke="#d0dec7"></path><path d="M0 381L0 450L97.9 351Z" fill="#f7f9f5" stroke="#f7f9f5"></path><path d="M138.9 450L0 450L994.3 458Z" fill="#ffffff" stroke="#ffffff"></path></g></svg>