<svg id="visual" viewBox="0 0 1500 450" width="1500" height="450" xmlns="http://www.w3.org/2000/svg" xmlns:xlink="http://www.w3.org/1999/xlink" version="1.1"><rect x="0" y="0" width="1500" height="450" fill="#FFFFFF"></rect><path d="M0 50L9.7 49.3C19.3 48.7 38.7 47.3 57.8 48.8C77 50.3 96 54.7 115.2 52C134.3 49.3 153.7 39.7 173 35.2C192.3 30.7 211.7 31.3 230.8 32.5C250 33.7 269 35.3 288.2 35C307.3 34.7 326.7 32.3 346 34.2C365.3 36 384.7 42 404 41.5C423.3 41 442.7 34 461.8 34.3C481 34.7 500 42.3 519.2 45.5C538.3 48.7 557.7 47.3 577 44.5C596.3 41.7 615.7 37.3 634.8 38C654 38.7 673 44.3 692.2 47.3C711.3 50.3 730.7 50.7 750 50.3C769.3 50 788.7 49 807.8 50C827 51 846 54 865.2 51C884.3 48 903.7 39 923 36.2C942.3 33.3 961.7 36.7 980.8 36.5C1000 36.3 1019 32.7 1038.2 33.8C1057.3 35 1076.7 41 1096 41.7C1115.3 42.3 1134.7 37.7 1154 37.3C1173.3 37 1192.7 41 1211.8 45.2C1231 49.3 1250 53.7 1269.2 51C1288.3 48.3 1307.7 38.7 1327 37.2C1346.3 35.7 1365.7 42.3 1384.8 42.8C1404 43.3 1423 37.7 1442.2 34.8C1461.3 32 1480.7 32 1490.3 32L1500 32L1500 0L1490.3 0C1480.7 0 1461.3 0 1442.2 0C1423 0 1404 0 1384.8 0C1365.7 0 1346.3 0 1327 0C1307.7 0 1288.3 0 1269.2 0C1250 0 1231 0 1211.8 0C1192.7 0 1173.3 0 1154 0C1134.7 0 1115.3 0 1096 0C1076.7 0 1057.3 0 1038.2 0C1019 0 1000 0 980.8 0C961.7 0 942.3 0 923 0C903.7 0 884.3 0 865.2 0C846 0 827 0 807.8 0C788.7 0 769.3 0 750 0C730.7 0 711.3 0 692.2 0C673 0 654 0 634.8 0C615.7 0 596.3 0 577 0C557.7 0 538.3 0 519.2 0C500 0 481 0 461.8 0C442.7 0 423.3 0 404 0C384.7 0 365.3 0 346 0C326.7 0 307.3 0 288.2 0C269 0 250 0 230.8 0C211.7 0 192.3 0 173 0C153.7 0 134.3 0 115.2 0C96 0 77 0 57.8 0C38.7 0 19.3 0 9.7 0L0 0Z" fill="#B2C8A2" stroke-linecap="round" stroke-linejoin="miter"></path></svg>